<svg version="1" xmlns="http://www.w3.org/2000/svg" width="933.333" height="933.333" viewBox="0 0 700.000000 700.000000"><path d="M327.8.5c-.2.1-4.1.5-8.8.9-8.7.7-10.5.9-22.5 2.7-11.6 1.8-12.3 1.9-19.2 3.5-18.4 4.2-24.8 5.9-36.9 9.9-26.4 8.8-53.8 21.6-75.9 35.6-34.6 21.7-65.5 49.7-91 82.4-23.8 30.4-43.2 66.8-55.9 104.7-3.1 9.4-7.9 26.7-9.1 32.9-.3 1.3-1.1 5.8-2 9.9-2.9 14.7-3.6 20-5.2 37-1.5 16.5-.8 59.2 1.2 71.1.2 1.3.6 4.6.9 7.4.9 7.8 2.3 15.6 5.1 28.5 2.3 10.7 8.8 33.3 11.4 39.5.5 1.1 2.5 6.5 4.6 12 5 13.2 18.1 39.8 25 50.8 3 4.9 5.5 9 5.5 9.3 0 .3.4 1 1 1.7.5.7 4.6 6.4 9.1 12.6 18.8 26.7 41 50.1 67.9 71.6 9.2 7.4 37 26.5 38.6 26.5.4 0 1.5.6 2.3 1.4 2.7 2.3 26 14 39.2 19.6 28.1 12 59.7 20.8 87.4 24.5 2.2.2 5.6.7 7.5 1 18.6 2.6 69.8 2.7 83.8 0 1.6-.3 10.4-1.5 14.7-2 25.5-3.3 65-15.6 93.5-29.2 11.3-5.4 33.9-17.7 37.5-20.5.6-.4 4.2-2.9 8-5.4 73.3-48.9 127.4-128.1 146.1-213.9 1.4-6.6 5.4-29.9 5.9-35 .4-3.3.9-7.1 1.1-8.5.9-4.7 1.1-52.5.4-60.5-1.3-13-2.1-20.2-2.5-22.7-.3-1.3-.8-4.3-1.1-6.8-.9-6.7-7-33.5-9.4-41.2-1.1-3.7-2.1-7-2.1-7.3 0-.2-1.6-4.9-3.5-10.2-22.2-61.5-57.8-112.5-107.4-154.1-6.6-5.6-30.4-23-35.1-25.7-23.5-13.7-50-27.5-52.7-27.5-.4 0-2.6-.8-4.8-1.9-9.6-4.6-39.1-13.6-56.2-17.2-5.4-1.1-10.6-2.2-11.7-2.5-1.1-.2-3.8-.6-6-.9-2.2-.3-5.1-.7-6.5-1-1.3-.2-5.2-.7-8.6-1.1-3.3-.3-7.4-.8-9-1-3.2-.5-54-1.4-54.6-.9z"/></svg>